<?xml version="1.0" standalone="no"?>
<!DOCTYPE svg PUBLIC "-//W3C//DTD SVG 20010904//EN"
 "http://www.w3.org/TR/2001/REC-SVG-20010904/DTD/svg10.dtd">
<svg version="1.0" xmlns="http://www.w3.org/2000/svg"
 width="398.000000pt" height="398.000000pt" viewBox="0 0 398.000000 398.000000"
 preserveAspectRatio="xMidYMid meet">
<metadata>
Created by potrace 1.14, written by Peter Selinger 2001-2017
</metadata>
<g transform="translate(0.000000,398.000000) scale(0.100000,-0.100000)"
fill="#000000" stroke="none">
<path d="M0 1990 l0 -1990 1990 0 1990 0 0 1990 0 1990 -1990 0 -1990 0 0
-1990z m1351 315 c85 -30 138 -108 139 -201 0 -100 -45 -178 -125 -215 -31
-15 -64 -19 -152 -19 l-113 0 0 -105 0 -105 -106 0 -106 0 3 318 c1 174 4 323
7 330 7 19 396 17 453 -3z m547 -144 c31 -85 57 -150 59 -145 2 5 27 74 56
154 l54 145 141 3 142 3 0 -331 0 -330 -100 0 -100 0 0 193 c0 120 -4 186 -10
176 -5 -8 -36 -87 -69 -175 -32 -87 -62 -167 -66 -176 -5 -14 -19 -18 -54 -18
l-47 0 -70 188 -69 187 -3 -187 -2 -188 -100 0 -100 0 0 330 0 331 141 -3 141
-3 56 -154z m1027 135 c125 -56 195 -168 195 -313 0 -129 -62 -228 -178 -285
l-67 -33 -207 -3 -208 -4 0 332 0 332 213 -4 c177 -3 219 -7 252 -22z"/>
<path d="M1100 2096 l0 -56 63 0 c75 0 111 16 115 50 4 45 -11 55 -98 58 l-80
4 0 -56z"/>
<path d="M2660 1990 l0 -163 75 6 c88 6 125 25 155 79 18 32 21 51 18 99 -7
92 -51 127 -174 136 l-74 6 0 -163z"/>
</g>
</svg>
